<svg width="1055" height="1457" viewBox="0 0 1055 1457" fill="none" xmlns="http://www.w3.org/2000/svg">
<path fill-rule="evenodd" clip-rule="evenodd" d="M906.911 413.024C1015.75 586.66 1060.28 799 1053.6 928.84C1053.6 929.62 1053.63 930.41 1053.66 931.2C1053.7 931.99 1053.73 932.78 1053.73 933.57C1051.31 1224.54 813.481 1458.47 522.505 1456.05C231.532 1453.64 -2.39351 1215.8 0.0184861 924.83C0.0184861 917.79 0.38349 908.81 0.74749 903.35C0.86949 901.52 1.04647 899.6 1.22747 897.64C1.58547 893.77 1.96047 889.71 1.96047 885.76C2.81947 875.45 4.28649 862.22 4.85549 857.1C5.08949 854.99 5.17149 854.25 4.99349 855.67C24.8935 664.074 129.973 457.798 245.852 336.459C246.924 334.917 249.042 334.537 250.583 335.609C252.125 336.682 252.505 338.8 251.433 340.342C237.236 370.798 207.751 458.283 248.763 461.074C262.475 461.074 269.391 453.065 277.521 436.806C287.266 417.068 296.887 390.38 307.924 359.762C351.168 239.805 416.164 59.5091 595.672 0.35012C599.191 -0.86288 603.437 1.07811 600.282 6.17411C547.406 89.0961 546.042 194.808 596.763 279.065C633.408 339.735 671.63 344.224 692.5 326.145C718.34 303.455 711.67 236.84 700.51 215.484C698.69 211.965 702.57 209.053 705.85 211.237C801.55 275.892 815 357.239 824.5 414.694C831.25 455.578 836.01 484.365 866.98 486.434C909.09 489.346 907.39 441.538 900.11 414.965C899.02 410.233 903.991 408.534 906.911 413.024ZM282.493 927.27C281.421 1062.18 389.882 1172.44 524.794 1173.58C589.67 1174.13 652.101 1148.86 698.33 1103.34C744.56 1057.81 770.78 995.78 771.23 930.9C772.17 795.99 663.591 685.844 528.678 684.841C393.766 683.839 283.566 792.36 282.493 927.27Z" fill="white"/>
</svg>
